HIERARCHY
ROOT Hips
{
	OFFSET 0.000000 0.000000 0.000000
	CHANNELS 6 Xposition Yposition Zposition Zrotation Yrotation Xrotation 
	JOINT LHipJoint
	{
		OFFSET 0.000000 0.000000 0.000000
		CHANNELS 3 Zrotation Yrotation Xrotation
		JOINT LeftUpLeg
		{
			OFFSET 1.363060 -1.794630 0.839290
			CHANNELS 3 Zrotation Yrotation Xrotation
			JOINT LeftLeg
			{
				OFFSET 2.448110 -6.726130 0.000000
				CHANNELS 3 Zrotation Yrotation Xrotation
				JOINT LeftFoot
				{
					OFFSET 2.562200 -7.039590 0.000000
					CHANNELS 3 Zrotation Yrotation Xrotation
					JOINT LeftToeBase
					{
						OFFSET 0.157640 -0.433110 2.322550
						CHANNELS 3 Zrotation Yrotation Xrotation
						End Site
						{
							OFFSET 0.000000 0.000000 0.000000
						}
					}
				}
			}
		}
	}
	JOINT RHipJoint
	{
		OFFSET 0.000000 0.000000 0.000000
		CHANNELS 3 Zrotation Yrotation Xrotation
		JOINT RightUpLeg
		{
			OFFSET -1.305520 -1.794630 0.839290
			CHANNELS 3 Zrotation Yrotation Xrotation
			JOINT RightLeg
			{
				OFFSET -2.542530 -6.985550 0.000000
				CHANNELS 3 Zrotation Yrotation Xrotation
				JOINT RightFoot
				{
					OFFSET -2.568260 -7.056230 0.000000
					CHANNELS 3 Zrotation Yrotation Xrotation
					JOINT RightToeBase
					{
						OFFSET -0.164730 -0.452590 2.363150
						CHANNELS 3 Zrotation Yrotation Xrotation
						End Site
						{
							OFFSET 0.000000 0.000000 0.000000
						}
					}
				}
			}
		}
	}
	JOINT LowerBack
	{
		OFFSET 0.000000 0.000000 0.000000
		CHANNELS 3 Zrotation Yrotation Xrotation
		JOINT Spine
		{
			OFFSET 0.028270 2.035590 -0.193380
			CHANNELS 3 Zrotation Yrotation Xrotation
			JOINT Spine1
			{
				OFFSET 0.056720 2.048850 -0.042750
				CHANNELS 3 Zrotation Yrotation Xrotation
				JOINT Neck
				{
					OFFSET 0.000000 0.000000 0.000000
					CHANNELS 3 Zrotation Yrotation Xrotation
					JOINT Neck1
					{
						OFFSET -0.054170 1.746240 0.172020
						CHANNELS 3 Zrotation Yrotation Xrotation
						JOINT Head
						{
							OFFSET 0.104070 1.761360 -0.123970
							CHANNELS 3 Zrotation Yrotation Xrotation
							End Site
							{
								OFFSET 0.000000 0.000000 0.000000
							}
						}
					}
				}
				JOINT LeftShoulder
				{
					OFFSET 0.000000 0.000000 0.000000
					CHANNELS 3 Zrotation Yrotation Xrotation
					JOINT LeftArm
					{
						OFFSET 3.362410 1.200890 -0.311210
						CHANNELS 3 Zrotation Yrotation Xrotation
						JOINT LeftForeArm
						{
							OFFSET 4.983000 -0.000000 -0.000000
							CHANNELS 3 Zrotation Yrotation Xrotation
							JOINT LeftHand
							{
								OFFSET 3.483560 -0.000000 -0.000000
								CHANNELS 3 Zrotation Yrotation Xrotation
								JOINT LeftFingerBase
								{
									OFFSET 0.000000 0.000000 0.000000
									CHANNELS 3 Zrotation Yrotation Xrotation
									JOINT LeftHandIndex1
									{
										OFFSET 0.715260 -0.000000 -0.000000
										CHANNELS 3 Zrotation Yrotation Xrotation
										End Site
										{
											OFFSET 0.000000 0.000000 0.000000
										}
									}
								}
								JOINT LThumb
								{
									OFFSET 0.000000 0.000000 0.000000
									CHANNELS 3 Zrotation Yrotation Xrotation
									End Site
									{
										OFFSET 0.000000 0.000000 0.000000
									}
								}
							}
						}
					}
				}
				JOINT RightShoulder
				{
					OFFSET 0.000000 0.000000 0.000000
					CHANNELS 3 Zrotation Yrotation Xrotation
					JOINT RightArm
					{
						OFFSET -3.136600 1.374050 -0.404650
						CHANNELS 3 Zrotation Yrotation Xrotation
						JOINT RightForeArm
						{
							OFFSET -5.241900 -0.000000 -0.000000
							CHANNELS 3 Zrotation Yrotation Xrotation
							JOINT RightHand
							{
								OFFSET -3.444170 -0.000000 -0.000000
								CHANNELS 3 Zrotation Yrotation Xrotation
								JOINT RightFingerBase
								{
									OFFSET 0.000000 0.000000 0.000000
									CHANNELS 3 Zrotation Yrotation Xrotation
									JOINT RightHandIndex1
									{
										OFFSET -0.622530 -0.000000 -0.000000
										CHANNELS 3 Zrotation Yrotation Xrotation
										End Site
										{
											OFFSET 0.000000 0.000000 0.000000
										}
									}
								}
								JOINT RThumb
								{
									OFFSET 0.000000 0.000000 0.000000
									CHANNELS 3 Zrotation Yrotation Xrotation
									End Site
									{
										OFFSET 0.000000 0.000000 0.000000
									}
								}
							}
						}
					}
				}
			}
		}
	}
}
MOTION
Frames: 10
Frame Time: 0.033333
-0.401421 16.510449 -0.401421 -5.662974 2.489860 1.844816 -1.234326 12.704953 0.653228 -12.527617 -5.535325 -11.253803 -6.475982 -13.519295 -34.196661 2.780952 20.625956 44.696259 0.000000 0.000000 0.000000 -2.084718 -2.399389 -19.275318 26.708107 -10.301427 13.805959 5.646506 -5.637514 5.917979 1.122521 8.136301 -32.149426 0.000000 0.000000 0.000000 -2.269711 -2.915546 20.776582 4.494726 -0.077421 -6.745378 7.357723 -1.383008 1.750329 1.262217 -0.540540 -7.910844 1.206077 0.002592 1.068752 0.000000 0.000000 0.000000 12.063258 5.635334 9.687875 -70.300701 -7.377536 13.081861 -10.593677 -86.450287 -0.689482 8.806977 -20.178073 -0.383980 9.187881 -20.058348 0.000000 0.000000 0.000000 0.000000 0.000000 0.000000 0.000000 -6.292371 -8.941732 6.932478 64.383704 9.031426 19.583058 17.079664 76.066112 0.289138 -0.874854 10.353220 0.142929 -0.890235 10.355014 0.000000 0.000000 0.000000 0.000000 0.000000 0.000000 0.000000 
-0.361516 16.562066 -0.213585 -5.296244 1.349841 2.404434 -1.136980 13.383520 0.762609 -13.207601 -5.434770 -11.395561 -6.333409 -13.110222 -33.627207 2.298778 19.772273 42.796549 0.000000 0.000000 0.000000 -1.840790 -4.419133 -17.960043 27.248683 -8.194603 11.584884 4.375380 -5.862251 9.514433 0.714742 9.286986 -32.573715 0.000000 0.000000 0.000000 -2.246361 -2.525013 19.772364 4.135237 0.048790 -6.263642 7.225552 -1.197845 1.728651 1.331289 -0.572332 -7.786773 1.004688 -0.008828 1.014913 0.000000 0.000000 0.000000 11.832767 5.711383 9.670560 -70.134121 -7.436789 12.866768 -10.152321 -86.531576 -0.727938 9.113463 -20.291516 -0.405120 9.509073 -20.163517 0.000000 0.000000 0.000000 0.000000 0.000000 0.000000 0.000000 -6.242479 -8.754498 6.937420 64.363531 9.070467 19.565190 16.956208 76.267064 0.297476 -0.905361 10.575515 0.146989 -0.921637 10.577307 0.000000 0.000000 0.000000 0.000000 0.000000 0.000000 0.000000 
-0.319439 16.615502 -0.026262 -4.908662 0.258461 2.991354 -1.090517 14.025016 0.836913 -13.892313 -5.366024 -11.571093 -6.197942 -12.683836 -32.951527 1.841283 18.874382 40.801746 0.000000 0.000000 0.000000 -1.543191 -6.327025 -16.534779 27.637441 -5.969670 9.251091 3.065347 -6.011503 12.997512 0.360837 10.274628 -32.841710 0.000000 0.000000 0.000000 -2.208451 -2.152673 18.718124 3.733478 0.159113 -5.745657 7.102209 -1.027730 1.691461 1.400251 -0.603263 -7.668133 0.804219 -0.019929 0.956995 0.000000 0.000000 0.000000 11.607599 5.779118 9.647617 -69.960307 -7.504662 12.648445 -9.709078 -86.613277 -0.766893 9.420592 -20.400388 -0.426569 9.831067 -20.263815 0.000000 0.000000 0.000000 0.000000 0.000000 0.000000 0.000000 -6.188689 -8.578235 6.934599 64.351799 9.110050 19.545286 16.827751 76.466781 0.306019 -0.937698 10.798589 0.151147 -0.954904 10.800374 0.000000 0.000000 0.000000 0.000000 0.000000 0.000000 0.000000 
-0.275249 16.670310 0.160155 -4.502941 -0.763983 3.594934 -1.095122 14.624552 0.878089 -14.576421 -5.333831 -11.778542 -6.075730 -12.242609 -32.166325 1.412900 17.936108 38.721388 0.000000 0.000000 0.000000 -1.204723 -8.093869 -15.020322 27.842515 -3.674791 6.836278 1.775163 -6.084904 16.309106 0.064230 11.097825 -32.948888 0.000000 0.000000 0.000000 -2.148041 -1.804288 17.622652 3.286211 0.249053 -5.187199 6.989140 -0.877717 1.637025 1.469204 -0.633227 -7.555873 0.605262 -0.030674 0.894782 0.000000 0.000000 0.000000 11.388747 5.835856 9.618523 -69.779283 -7.582506 12.426753 -9.263900 -86.695380 -0.806378 9.728355 -20.504562 -0.448340 10.153844 -20.359116 0.000000 0.000000 0.000000 0.000000 0.000000 0.000000 0.000000 -6.130779 -8.415683 6.923088 64.348997 9.149933 19.523015 16.694031 76.665453 0.314764 -0.971955 11.022419 0.155399 -0.990127 11.024187 0.000000 0.000000 0.000000 0.000000 0.000000 0.000000 0.000000 
-0.229518 16.726083 0.345310 -4.081756 -1.700851 4.202109 -1.149728 15.179989 0.891434 -15.253783 -5.341962 -12.015753 -5.967536 -11.788963 -31.270665 1.016579 16.961261 36.568289 0.000000 0.000000 0.000000 -0.838899 -9.698054 -13.444785 27.838164 -1.367786 4.376660 0.562756 -6.093932 19.400741 -0.175522 11.761159 -32.894867 0.000000 0.000000 0.000000 -2.057704 -1.483900 16.496913 2.789995 0.315292 -4.583077 6.887918 -0.751876 1.563861 1.538255 -0.662087 -7.450835 0.408556 -0.041018 0.828071 0.000000 0.000000 0.000000 11.177364 5.879333 9.582793 -69.591145 -7.671515 12.201421 -8.816640 -86.777924 -0.846428 10.036758 -20.603885 -0.470453 10.477400 -20.449265 0.000000 0.000000 0.000000 0.000000 0.000000 0.000000 0.000000 -6.068631 -8.269022 6.902039 64.355717 9.190060 19.497994 16.554818 76.863216 0.323706 -1.008226 11.246985 0.159744 -1.027402 11.248730 0.000000 0.000000 0.000000 0.000000 0.000000 0.000000 0.000000 
-0.182420 16.781878 0.528775 -3.656363 -2.366632 4.753200 -1.254799 15.618071 0.842285 -15.905692 -5.376859 -12.198714 -5.921461 -11.354980 -30.248171 0.667976 15.885394 34.383135 0.000000 0.000000 0.000000 -0.481910 -11.181482 -11.792079 27.613009 0.850998 1.915431 -0.496857 -6.084471 22.190053 -0.359002 12.235071 -32.709571 0.000000 0.000000 0.000000 -1.887730 -1.187405 15.285214 2.451545 0.336559 -3.863685 6.546586 -0.567493 1.212237 1.823060 -0.685706 -7.296776 0.092695 -0.049883 0.603867 0.000000 0.000000 0.000000 10.478132 6.084979 9.563842 -69.753591 -7.491024 12.613809 -8.930391 -86.380431 -0.769209 9.716324 -20.505164 -0.429500 10.137372 -20.360176 0.000000 0.000000 0.000000 0.000000 0.000000 0.000000 0.000000 -5.950596 -8.236029 7.002307 64.433569 9.019785 19.404890 16.425591 76.964559 0.328461 -1.039813 11.426421 0.162014 -1.060033 11.428107 0.000000 0.000000 0.000000 0.000000 0.000000 0.000000 0.000000 
-0.133755 16.837826 0.710876 -3.216793 -2.931230 5.265138 -1.399047 16.023206 0.794153 -16.542218 -5.453819 -12.398331 -5.892251 -10.914269 -29.116426 0.354336 14.783236 32.145732 0.000000 0.000000 0.000000 -0.129458 -12.498693 -10.130044 27.173558 2.973060 -0.510490 -1.426486 -6.047307 24.715741 -0.495683 12.574975 -32.382655 0.000000 0.000000 0.000000 -1.668076 -0.918398 14.031373 2.045708 0.331173 -2.973379 6.211117 -0.405623 0.777907 2.112281 -0.709811 -7.169771 -0.219805 -0.059481 0.372911 0.000000 0.000000 0.000000 9.771342 6.293829 9.530760 -69.870233 -7.319978 13.033429 -9.059592 -85.970973 -0.692606 9.389160 -20.389876 -0.388839 9.790286 -20.254482 0.000000 0.000000 0.000000 0.000000 0.000000 0.000000 0.000000 -5.823674 -8.233393 7.084154 64.531803 8.843742 19.313313 16.296626 77.062723 0.333478 -1.071528 11.606113 0.164411 -1.092798 11.607738 0.000000 0.000000 0.000000 0.000000 0.000000 0.000000 0.000000 
-0.084345 16.893570 0.891607 -2.764103 -3.393487 5.722528 -1.578918 16.402650 0.759532 -17.159460 -5.572949 -12.611416 -5.873618 -10.467497 -27.878999 0.074524 13.657566 29.868987 0.000000 0.000000 0.000000 0.204996 -13.656119 -8.486495 26.533220 4.951059 -2.864120 -2.209673 -6.001646 26.971689 -0.591687 12.795180 -31.927197 0.000000 0.000000 0.000000 -1.390312 -0.674023 12.735755 1.558225 0.300990 -1.879934 5.886270 -0.267000 0.250441 2.405346 -0.733884 -7.076447 -0.524720 -0.069600 0.135224 0.000000 0.000000 0.000000 9.061350 6.506295 9.481611 -69.940966 -7.161584 13.461260 -9.204398 -85.551046 -0.616712 9.055570 -20.257347 -0.348525 9.436497 -20.131476 0.000000 0.000000 0.000000 0.000000 0.000000 0.000000 0.000000 -5.687971 -8.264260 7.144264 64.652537 8.663515 19.224060 16.167556 77.158353 0.338803 -1.103356 11.786026 0.166960 -1.125675 11.787588 0.000000 0.000000 0.000000 0.000000 0.000000 0.000000 0.000000 
-0.034166 16.948839 1.070729 -2.300114 -3.758765 6.113247 -1.791954 16.766367 0.750964 -17.752169 -5.733816 -12.838512 -5.865652 -10.013871 -26.539497 -0.172641 12.514592 27.566973 0.000000 0.000000 0.000000 0.508657 -14.666174 -6.885725 25.720917 6.749181 -5.110669 -2.852501 -5.958616 28.959795 -0.654280 12.912465 -31.356265 0.000000 0.000000 0.000000 -1.045986 -0.449930 11.397767 0.970691 0.250990 -0.554969 5.580736 -0.152706 -0.374228 2.698575 -0.757200 -7.023485 -0.815351 -0.079892 -0.107190 0.000000 0.000000 0.000000 8.360747 6.719844 9.414453 -69.963777 -7.022764 13.890568 -9.357490 -85.129129 -0.542952 8.723590 -20.110275 -0.309328 9.084511 -19.993607 0.000000 0.000000 0.000000 0.000000 0.000000 0.000000 0.000000 -5.545270 -8.329575 7.178061 64.797821 8.483903 19.138512 16.037584 77.253502 0.344531 -1.135439 11.966706 0.169708 -1.158802 11.968205 0.000000 0.000000 0.000000 0.000000 0.000000 0.000000 0.000000 
-0.003867 16.988810 1.227565 -1.933608 -3.554805 6.355501 -1.814342 16.701622 0.461405 -18.349383 -5.719216 -12.551644 -5.847293 -9.719652 -25.456757 -0.309946 11.427243 25.635227 0.000000 0.000000 0.000000 0.797386 -15.041191 -6.079510 24.987207 7.705676 -6.466598 -3.485534 -6.195479 30.596162 -0.613721 12.652152 -30.897710 0.000000 0.000000 0.000000 -0.916334 -0.326690 11.018814 1.060494 0.208572 -0.065660 4.620139 0.091022 -1.458929 2.302507 -0.608738 -6.376680 -0.301281 -0.054409 0.281897 0.000000 0.000000 0.000000 7.343590 7.430736 9.350953 -70.182755 -6.527318 15.445981 -10.731720 -83.946837 -0.318931 7.396941 -19.542598 -0.189485 7.690008 -19.458576 0.000000 0.000000 0.000000 0.000000 0.000000 0.000000 0.000000 -5.036571 -9.110737 7.198163 64.943307 7.890346 19.355691 16.257235 77.125375 0.348105 -1.068916 11.993166 0.171515 -1.091760 11.994901 0.000000 0.000000 0.000000 0.000000 0.000000 0.000000 0.000000 
